<?xml version="1.0" standalone="no"?>
<!DOCTYPE svg PUBLIC "-//W3C//DTD SVG 1.1//EN" "http://www.w3.org/Graphics/SVG/1.1/DTD/svg11.dtd">
<svg xmlns="http://www.w3.org/2000/svg" xmlns:xlink="http://www.w3.org/1999/xlink" width="2880" zoomAndPan="magnify" viewBox="0 0 2880 2879.999992" height="2880" preserveAspectRatio="xMidYMid meet" version="1.0"><rect x="-288" width="3456" fill="#ffffff" y="-287.999999" height="3455.999991" fill-opacity="1"/><rect x="-288" width="3456" fill="#ffffff" y="-287.999999" height="3455.999991" fill-opacity="1"/><path fill="#083a5e" d="M 662.167969 1439.949219 L 1369.445312 2147.230469 C 1205.421875 2311.265625 939.480469 2311.265625 775.445312 2147.230469 L 68.167969 1439.949219 L 775.445312 732.671875 C 939.480469 568.636719 1205.421875 568.636719 1369.445312 732.671875 Z M 662.167969 1439.949219 " fill-opacity="1" fill-rule="nonzero"/><path fill="#000000" d="M 2811.824219 1439.949219 L 2072.867188 2178.910156 C 1926.316406 2325.457031 1688.753906 2325.457031 1542.167969 2178.910156 L 1439.996094 2076.691406 L 803.246094 1439.949219 L 1439.996094 803.210938 L 1542.195312 700.992188 C 1688.746094 554.445312 1926.308594 554.445312 2072.894531 700.992188 Z M 2811.824219 1439.949219 " fill-opacity="1" fill-rule="nonzero"/><path fill="#ff8e01" d="M 2811.824219 1439.949219 L 2090.644531 2161.140625 L 2072.867188 2178.910156 C 1926.316406 2325.457031 1688.753906 2325.457031 1542.167969 2178.910156 L 1439.996094 2076.691406 L 803.246094 1439.949219 L 1439.996094 803.210938 L 1542.195312 700.992188 C 1688.746094 554.445312 1926.308594 554.445312 2072.894531 700.992188 L 2090.644531 718.742188 Z M 2811.824219 1439.949219 " fill-opacity="1" fill-rule="nonzero"/></svg>